# xmcd
#
# Track frame offsets:
#	150
#	5320
#	22403
#	41050
#	57008
#	66814
#	78808
#	91997
#	105320
#	120676
#	135949
#	147451
#	167680
#	182264
#	200154
#	212775
#	224243
#	238836
#	251618
#	274483
#	294795
#	311201
#
# Disc length: 4305 seconds
#
# Revision: 1
# Processed by: cddbd v1.5.2PL0 Copyright (c) Steve Scherf et al.
# Submitted via: audiograbber 1.83.01
#
DISCID=4910cf16
DTITLE=Various Artist - Macca's Top 100 [Disc 4]
DYEAR=2012
DGENRE=Country
TTITLE0=Drew Forsythe - Ubobo
TTITLE1=Ian McNamara - The Man In The Picture
TTITLE2=Phil Hungerford featuring the EDOCS - It'll All Catch You Up
TTITLE3=Gary Shearston - Riverina Drover
TTITLE4=Larry Muhoberac - I Still Call Australia Home
TTITLE5=The Basics - Hey There!
TTITLE6=Us Not Them - I Don't Work For A Living
TTITLE7=Eric Bogle - The Gift Of Years
TTITLE8=Col Joye - Playing Hearts
TTITLE9=Norma Murphy - Along The Bruce Highway
TTITLE10=Dermot Dorgan - The Call Of The Cappuccino
TTITLE11=The Ploughboys - Wild Colonial Boy
TTITLE12=Macca with Stephen Pigram - Another Night In Broome
TTITLE13=Dave de Hugard - The Rabbit Trapper
TTITLE14=Roxanne Kiely - Bad Hair Day
TTITLE15=Smoky Dawson and Jean Stafford - I'll Paint You A Song
TTITLE16=The Flying Emus - Ain't No Letters
TTITLE17=Wombat Jazz Band - The Wombat
TTITLE18=Michael Whittle - The Last Man From Dunolly
TTITLE19=Macca with Rolf Harris - Fry Me Kangaroo Brown
TTITLE20=Nigel Foote - The Water Smoothes The Stones
TTITLE21=The Goodwills - Underneath The Story Bridge
EXTD=
EXTT0=
EXTT1=
EXTT2=
EXTT3=
EXTT4=
EXTT5=
EXTT6=
EXTT7=
EXTT8=
EXTT9=
EXTT10=
EXTT11=
EXTT12=
EXTT13=
EXTT14=
EXTT15=
EXTT16=
EXTT17=
EXTT18=
EXTT19=
EXTT20=
EXTT21=
PLAYORDER=
